<?xml version="1.0" encoding="utf-8"?>
<!-- Generator: Adobe Illustrator 28.0.0, SVG Export Plug-In . SVG Version: 6.00 Build 0)  -->
<svg version="1.1" id="Laag_1" xmlns="http://www.w3.org/2000/svg" xmlns:xlink="http://www.w3.org/1999/xlink" x="0px" y="0px"
	 viewBox="0 0 32 32" style="enable-background:new 0 0 32 32;" xml:space="preserve">
<style type="text/css">
	.st0{fill:#FFFFFF;}
	.st1{fill:#44403D;}
	.st2{fill:#D6D6D6;}
	.st3{fill:#F4F4F4;}
	.st4{fill:#383533;}
	.st5{fill:#565656;}
	.st6{fill:#3F3B38;}
	.st7{clip-path:url(#SVGID_00000132776663323642133730000012430416240623357587_);}
	.st8{fill:#BF9B30;}
	.st9{fill:#A67C00;}
</style>
<g>
	<path class="st8" d="M22.9,23.2H9.2c0,0-3.4-10.1,0-17.1s10.2-5.4,10.2-5.4s2-1,2.4-0.5c0.4,0.5-0.1,1.5-0.1,1.5S22.9,2,23.5,4
		c0.6,1.9,4.1,4.3,4.1,4.3s0.8,0.8-0.2,2.1s-1.8,1.1-1.8,1.1s-1.6-1.2-4.6-0.6c-3,0.6-3.3-2.5-3.3-2.5s-1.2,2.4,1,5.7s4,4.1,4.4,4.8
		C23.5,20,22.9,23.2,22.9,23.2z"/>
	<g>
		<path class="st9" d="M23.1,23.2H8.9c-0.4,0-0.6,0.4-0.4,0.7l1,1.2h13l1-1.2C23.6,23.6,23.4,23.2,23.1,23.2z"/>
	</g>
	<g>
		<path class="st8" d="M25.8,28c-0.4-0.3-0.8-0.5-1.2-0.8c-0.4-0.3-0.8-0.6-1.1-1c-0.2-0.2-0.4-0.4-0.5-0.5
			c-0.1-0.1-0.5-0.6-0.5-0.6H16H16h-0.1c0,0-6.4,0-6.4,0c0,0-0.4,0.5-0.5,0.6c-0.2,0.2-0.4,0.4-0.5,0.5c-0.4,0.3-0.7,0.7-1.1,1
			c-0.4,0.3-0.8,0.6-1.2,0.8c-0.9,0.6-2,1.1-2,2.3c0,1,0.8,1.7,1.7,1.7h10.1H16H16h10.1c1,0,1.7-0.8,1.7-1.7
			C27.9,29,26.8,28.5,25.8,28z"/>
	</g>
</g>
</svg>
