<?xml version="1.0" encoding="utf-8"?>
<!-- Generator: Adobe Illustrator 28.0.0, SVG Export Plug-In . SVG Version: 6.00 Build 0)  -->
<svg version="1.1" id="Laag_1" xmlns="http://www.w3.org/2000/svg" xmlns:xlink="http://www.w3.org/1999/xlink" x="0px" y="0px"
	 viewBox="0 0 32 32" style="enable-background:new 0 0 32 32;" xml:space="preserve">
<style type="text/css">
	.st0{fill:#D6D6D6;}
	.st1{fill:#FFFFFF;}
	.st2{fill:#44403D;}
	.st3{fill:#F4F4F4;}
	.st4{fill:#383533;}
	.st5{fill:#565656;}
	.st6{fill:#3F3B38;}
	.st7{clip-path:url(#SVGID_00000114763021579570519810000006296169861084426155_);}
</style>
<circle class="st0" cx="16" cy="16" r="16"/>
<g>
	<defs>
		<circle id="SVGID_1_" cx="16" cy="16" r="16"/>
	</defs>
	<clipPath id="SVGID_00000163036362099818972530000005730280811167348893_">
		<use xlink:href="#SVGID_1_"  style="overflow:visible;"/>
	</clipPath>
	<g style="clip-path:url(#SVGID_00000163036362099818972530000005730280811167348893_);">
		<path class="st2" d="M24.2,10.9h-4v-4c0-2.3-1.9-4.2-4.2-4.2s-4.2,1.9-4.2,4.2v4h-4c-2.3,0-4.2,1.9-4.2,4.2v0
			c0,2.3,1.9,4.2,4.2,4.2h4V31c0,2.3,1.9,4.2,4.2,4.2s4.2-1.9,4.2-4.2V19.3h4c2.3,0,4.2-1.9,4.2-4.2v0
			C28.3,12.8,26.5,10.9,24.2,10.9z"/>
		<path class="st2" d="M34.2,38.1c0-1.9-1-3.7-2.5-4.7c-0.9-0.6-1.9-0.8-2.9-1.1c-1.3-0.3-2.5-0.5-3.8-0.7c-2.4-0.3-4.8-0.5-7.2-0.6
			l-0.9,0c-0.3,0-0.5,0-0.8,0c-0.3,0-0.5,0-0.8,0l-0.9,0c-2.4,0.1-4.8,0.3-7.2,0.6c-1.3,0.2-2.6,0.4-3.8,0.7c-1,0.2-2,0.5-2.9,1.1
			c-1.6,1.1-2.5,2.8-2.5,4.7c0,0.5,0.1,1.1,0.2,1.6c0,0,5.9,17.2,8.7,25.5c0.2,0.7,0.3,1.4,0.3,2.1c0,0.7-0.1,1.5-0.3,2.2l18.6,0.1
			c-0.2-0.7-0.3-1.5-0.3-2.2c0-0.9,0.2-2,0.4-2.8h0c2.9-8.5,8.5-24.8,8.5-24.8C34.1,39.2,34.2,38.6,34.2,38.1z"/>
		<path class="st6" d="M20.2,24.7c0,0-4.8,2.6-8.4,2.8c7.9,0,8.4,0,8.4,0V24.7z"/>
		<path class="st2" d="M23.9,27.4H8.3c-1.1,0-2.1,0.9-2.1,2.1c0,1.1,0.9,2.1,2.1,2.1h15.6v0c0.1,0,0.2,0,0.3,0c0.9-0.2,1.6-1,1.6-2
			S25.1,27.4,23.9,27.4z"/>
		<path class="st6" d="M24.1,27.4c0,0-2.2,2.7-10.2,3.7l-3.5,0.3c0,0-0.1,0-0.1,0h0l-0.5,0.1h14c0.2,0,0.3,0,0.5-0.1
			c0.9-0.2,1.6-1,1.6-2C25.8,28.4,25.1,27.6,24.1,27.4z"/>
	</g>
</g>
</svg>
